<svg xmlns="http://www.w3.org/2000/svg" width="1200" height="1200" viewBox="0 0 1000 1000" fill="none">
<g>
<path d="M 598.44,277.78 L 600.05,277.86 L 600.98,277.92 L 602.93,278.06 L 604.06,278.15 L 612.61,279.00 L 615.11,279.32 L 616.12,279.47 L 617.95,279.76 L 618.50,279.88 L 623.75,281.26 L 627.52,282.44 L 629.49,283.13 L 637.54,286.16 L 641.45,287.89 L 645.32,289.65 L 647.14,290.55 L 650.69,292.35 L 652.28,293.24 L 655.34,295.00 L 656.63,295.85 L 659.03,297.49 L 659.92,298.25 L 662.40,300.19 L 663.07,300.64 L 663.31,300.78 L 663.73,301.00 L 663.83,301.00 L 664.25,301.19 L 664.69,301.49 L 664.97,301.73 L 666.28,302.87 L 667.15,303.70 L 669.01,305.53 L 670.09,306.63 L 672.32,308.94 L 673.51,310.21 L 678.40,315.53 L 680.67,318.16 L 682.89,320.75 L 683.86,321.93 L 685.71,324.21 L 686.43,325.17 L 691.07,332.04 L 694.11,337.15 L 695.49,339.75 L 698.12,344.94 L 699.16,347.34 L 700.16,349.69 L 700.56,350.78 L 701.32,352.89 L 701.59,353.83 L 703.32,359.17 L 703.98,361.01 L 704.30,361.84 L 704.92,363.43 L 705.19,364.05 L 705.73,365.61 L 706.07,366.87 L 706.23,367.60 L 706.81,370.78 L 707.05,372.69 L 707.49,376.69 L 707.65,378.90 L 707.93,383.43 L 708.00,385.80 L 708.11,390.59 L 708.10,392.97 L 708.04,397.72 L 707.94,399.98 L 707.69,404.41 L 707.49,406.41 L 707.05,410.23 L 706.75,411.82 L 706.00,415.57 L 705.49,417.90 L 705.26,418.89 L 704.80,420.76 L 704.60,421.43 L 704.25,422.59 L 704.13,422.82 L 703.74,423.78 L 703.45,424.66 L 703.31,425.17 L 702.75,427.36 L 702.55,428.44 L 702.09,430.34 L 701.65,431.80 L 701.38,432.57 L 700.19,435.69 L 699.56,436.94 L 697.76,440.95 L 697.26,442.23 L 697.07,442.78 L 696.73,443.81 L 696.64,444.18 L 696.06,445.72 L 695.38,447.12 L 694.94,447.93 L 692.92,451.45 L 691.75,453.18 L 688.46,458.11 L 687.57,459.47 L 687.23,459.98 L 686.65,460.88 L 686.51,461.10 L 683.67,465.23 L 681.59,467.94 L 680.59,469.12 L 678.65,471.33 L 677.86,472.10 L 677.10,472.80 L 676.79,473.04 L 676.22,473.43 L 676.02,473.49 L 675.22,473.96 L 674.67,474.46 L 674.41,474.78 L 673.42,476.24 L 673.13,477.05 L 671.87,479.35 L 671.34,479.96 L 671.08,480.19 L 670.54,480.59 L 670.30,480.68 L 669.36,481.14 L 668.57,481.61 L 668.13,481.90 L 666.29,483.21 L 665.45,483.92 L 662.94,485.95 L 661.09,487.37 L 660.10,488.10 L 655.99,491.02 L 653.92,492.40 L 649.81,495.04 L 648.00,496.09 L 646.25,497.08 L 645.48,497.49 L 644.03,498.22 L 643.44,498.46 L 640.98,499.73 L 640.32,500.17 L 640.08,500.36 L 639.66,500.75 L 639.56,500.90 L 638.41,501.68 L 637.23,502.00 L 636.60,502.00 L 635.26,502.15 L 634.04,502.39 L 633.32,502.57 L 630.22,503.41 L 628.66,503.94 L 625.72,504.78 L 623.26,505.36 L 621.89,505.63 L 616.15,506.65 L 613.54,506.94 L 610.11,507.31 L 608.54,507.45 L 605.51,507.70 L 604.14,507.78 L 601.48,507.92 L 600.28,507.94 L 597.96,507.95 L 596.91,507.91 L 594.88,507.81 L 593.97,507.71 L 592.20,507.48 L 591.40,507.32 L 588.40,506.55 L 587.14,505.98 L 583.29,504.58 L 582.05,504.25 L 581.51,504.15 L 580.50,503.99 L 580.14,503.99 L 578.70,503.79 L 577.45,503.49 L 576.73,503.26 L 573.69,502.21 L 572.25,501.54 L 567.44,499.60 L 565.84,499.06 L 565.12,498.85 L 563.77,498.48 L 563.26,498.39 L 561.49,497.94 L 560.14,497.51 L 559.44,497.25 L 556.61,496.10 L 555.51,495.50 L 552.13,493.67 L 549.91,492.50 L 548.64,491.85 L 547.33,491.17 L 546.60,490.80 L 545.07,490.03 L 544.21,489.59 L 542.41,488.68 L 541.38,488.17 L 539.23,487.09 L 538.00,486.47 L 535.12,484.99 L 532.94,483.84 L 531.76,483.20 L 526.77,480.47 L 524.11,478.97 L 518.73,475.92 L 516.15,474.41 L 513.61,472.92 L 512.41,472.20 L 510.06,470.80 L 509.00,470.14 L 507.17,469.08 L 505.63,468.23 L 504.76,467.78 L 501.15,465.90 L 499.50,465.10 L 494.70,462.44 L 493.34,461.55 L 492.80,461.15 L 491.85,460.39 L 491.59,460.10 L 489.95,458.62 L 488.95,458.00 L 488.67,458.00 L 487.49,457.60 L 486.51,457.02 L 486.08,456.64 L 484.77,455.75 L 483.32,454.86 L 482.39,454.31 L 480.39,453.16 L 479.26,452.53 L 476.93,451.24 L 475.73,450.60 L 468.47,446.56 L 466.31,445.31 L 465.43,444.78 L 463.83,443.79 L 463.34,443.45 L 460.43,441.72 L 459.60,441.32 L 459.27,441.19 L 458.68,441.00 L 458.52,441.00 L 457.16,440.44 L 456.06,439.62 L 455.58,439.09 L 453.67,437.57 L 452.14,436.75 L 451.49,436.59 L 448.78,435.54 L 446.62,434.42 L 445.46,433.71 L 443.13,432.21 L 441.99,431.37 L 439.78,429.67 L 438.82,428.81 L 435.81,426.71 L 434.71,426.14 L 434.19,425.92 L 433.19,425.54 L 432.77,425.45 L 431.21,424.97 L 429.93,424.47 L 429.23,424.16 L 426.30,422.77 L 425.01,422.00 L 420.98,419.85 L 419.73,419.26 L 419.21,419.04 L 418.23,418.65 L 417.90,418.56 L 414.35,417.37 L 411.92,416.39 L 410.78,415.85 L 408.58,414.77 L 407.69,414.25 L 406.07,413.22 L 405.59,412.79 L 403.70,411.58 L 401.83,410.73 L 400.59,410.29 L 397.91,409.38 L 396.27,408.91 L 392.79,407.95 L 390.75,407.46 L 388.81,406.60 L 388.36,406.24 L 388.22,406.05 L 388.00,405.68 L 388.00,405.50 L 388.19,405.14 L 388.50,404.82 L 388.73,404.63 L 389.88,403.75 L 390.72,403.20 L 392.55,402.05 L 393.66,401.42 L 395.98,400.13 L 397.25,399.48 L 405.01,395.29 L 407.36,393.95 L 408.33,393.36 L 410.11,392.27 L 410.68,391.87 L 414.04,389.84 L 415.00,389.37 L 415.38,389.23 L 416.05,389.00 L 416.24,389.00 L 417.79,388.47 L 419.03,387.69 L 419.56,387.20 L 420.82,386.16 L 422.02,385.25 L 422.75,384.72 L 425.96,382.46 L 427.66,381.32 L 429.35,380.19 L 430.14,379.68 L 431.66,378.70 L 432.30,378.30 L 433.50,377.58 L 433.91,377.35 L 434.61,377.00 L 434.72,377.00 L 435.29,376.70 L 435.98,376.24 L 436.43,375.90 L 437.41,375.15 L 437.97,374.71 L 439.14,373.77 L 439.75,373.25 L 443.56,370.16 L 444.73,369.25 L 445.23,368.88 L 446.14,368.21 L 446.45,368.00 L 448.69,366.51 L 449.98,365.64 L 450.54,365.25 L 452.60,363.84 L 453.40,363.27 L 456.18,361.21 L 457.60,360.04 L 465.67,353.64 L 468.38,351.57 L 469.69,350.60 L 472.27,348.70 L 473.47,347.84 L 475.80,346.18 L 476.83,345.47 L 478.80,344.14 L 479.60,343.62 L 481.09,342.70 L 481.61,342.43 L 482.51,342.00 L 482.69,342.00 L 483.96,341.39 L 484.94,340.49 L 485.34,339.92 L 486.47,338.61 L 487.57,337.52 L 488.24,336.91 L 491.21,334.30 L 492.86,332.98 L 496.18,330.41 L 497.60,329.43 L 498.96,328.52 L 499.51,328.20 L 500.52,327.65 L 500.84,327.55 L 501.82,327.07 L 502.55,326.56 L 502.92,326.24 L 504.42,324.82 L 504.97,324.04 L 506.17,322.65 L 507.28,321.56 L 507.94,320.97 L 510.80,318.58 L 512.25,317.59 L 514.89,315.78 L 517.02,314.31 L 518.18,313.50 L 523.00,310.18 L 525.08,308.74 L 529.55,305.67 L 532.31,303.81 L 533.58,302.97 L 536.03,301.35 L 537.14,300.63 L 539.29,299.25 L 540.25,298.65 L 542.09,297.52 L 542.89,297.04 L 544.42,296.16 L 545.07,295.81 L 546.28,295.17 L 546.77,294.95 L 547.67,294.56 L 548.00,294.46 L 549.37,293.95 L 550.55,293.42 L 551.23,293.09 L 554.12,291.61 L 555.50,290.81 L 559.47,288.52 L 560.59,287.87 L 561.02,287.63 L 561.79,287.19 L 562.00,287.07 L 563.46,286.42 L 564.91,285.87 L 565.82,285.56 L 569.83,284.21 L 572.03,283.53 L 574.22,282.87 L 575.26,282.57 L 577.28,281.99 L 578.16,281.76 L 579.81,281.34 L 580.42,281.21 L 581.49,281.00 L 581.74,281.00 L 582.83,280.85 L 583.86,280.63 L 584.48,280.46 L 587.19,279.66 L 588.57,279.16 L 591.56,278.22 L 593.47,277.85 L 594.56,277.78 L 596.91,277.71 Z" fill="rgba(1,195,155,1)"/>
<path d="M 604.35,276.18 L 606.92,276.25 L 612.03,276.70 L 614.58,276.97 L 619.64,277.83 L 622.16,278.30 L 627.14,279.55 L 629.62,280.23 L 634.50,281.86 L 636.93,282.72 L 641.71,284.73 L 644.08,285.78 L 648.72,288.14 L 651.02,289.37 L 655.51,292.08 L 657.74,293.48 L 662.06,296.53 L 664.20,298.09 L 668.34,301.47 L 670.38,303.20 L 674.31,306.89 L 676.25,308.77 L 679.96,312.76 L 681.79,314.79 L 685.26,319.08 L 686.96,321.25 L 690.17,325.82 L 691.74,328.13 L 694.67,332.96 L 698.74,340.50 L 699.91,342.87 L 702.03,347.94 L 703.06,350.52 L 704.85,355.94 L 705.71,358.68 L 707.16,364.34 L 707.84,367.19 L 708.94,372.97 L 709.43,375.87 L 710.14,381.67 L 710.45,384.56 L 710.76,390.27 L 710.86,393.10 L 710.75,398.60 L 710.09,406.50 L 709.70,409.51 L 708.62,415.42 L 708.03,418.36 L 706.56,424.10 L 705.78,426.96 L 703.95,432.53 L 702.99,435.29 L 700.80,440.66 L 699.66,443.32 L 697.13,448.48 L 695.82,451.03 L 692.96,455.96 L 691.49,458.39 L 688.32,463.07 L 686.69,465.38 L 683.22,469.80 L 681.45,471.97 L 677.69,476.11 L 675.77,478.14 L 671.74,481.98 L 669.69,483.87 L 665.40,487.39 L 663.22,489.11 L 658.68,492.31 L 656.38,493.86 L 651.61,496.71 L 649.20,498.09 L 644.21,500.57 L 641.69,501.76 L 636.50,503.86 L 628.50,506.56 L 627.12,506.97 L 624.05,507.67 L 622.48,508.00 L 619.12,508.55 L 615.71,509.06 L 608.46,509.60 L 604.84,509.78 L 597.82,509.63 L 596.12,509.54 L 592.91,509.24 L 591.35,509.06 L 588.50,508.57 L 586.19,508.12 L 581.38,506.95 L 578.94,506.32 L 573.88,504.78 L 571.32,503.97 L 565.99,502.07 L 563.30,501.07 L 557.70,498.80 L 554.86,497.61 L 548.97,494.96 L 545.98,493.59 L 539.79,490.56 L 536.65,489.00 L 530.14,485.58 L 520.00,480.01 L 519.55,479.76 L 518.05,478.89 L 517.21,478.40 L 514.99,477.10 L 513.80,476.40 L 510.97,474.74 L 509.49,473.87 L 506.16,471.90 L 504.43,470.88 L 500.69,468.67 L 498.78,467.53 L 494.74,465.14 L 482.00,457.55 L 479.09,455.82 L 473.54,452.53 L 470.81,450.92 L 465.62,447.86 L 463.06,446.37 L 458.18,443.54 L 455.78,442.15 L 451.21,439.53 L 448.95,438.25 L 444.65,435.83 L 442.53,434.64 L 438.48,432.40 L 436.49,431.31 L 432.66,429.25 L 430.78,428.23 L 427.16,426.33 L 423.58,424.47 L 416.94,421.17 L 413.69,419.58 L 407.55,416.76 L 404.53,415.40 L 398.70,412.95 L 390.10,409.61 L 388.95,409.18 L 386.84,408.32 L 385.83,407.90 L 384.16,407.12 L 383.40,406.75 L 382.35,406.13 L 381.68,405.50 L 381.68,405.43 L 381.93,405.17 L 382.10,405.01 L 382.65,404.60 L 382.97,404.37 L 383.80,403.83 L 384.25,403.54 L 385.32,402.88 L 386.44,402.20 L 389.26,400.60 L 394.08,398.00 L 397.30,396.32 L 403.55,392.88 L 406.67,391.14 L 412.87,387.48 L 415.98,385.62 L 422.31,381.61 L 425.52,379.55 L 432.19,375.05 L 435.59,372.73 L 442.80,367.62 L 444.64,366.29 L 448.47,363.51 L 450.40,362.09 L 454.43,359.10 L 456.47,357.58 L 460.72,354.37 L 462.87,352.74 L 467.37,349.29 L 469.66,347.54 L 474.43,343.85 L 481.94,338.00 L 484.59,335.92 L 489.59,332.03 L 492.05,330.13 L 496.67,326.56 L 498.94,324.82 L 503.22,321.56 L 505.32,319.97 L 509.29,317.00 L 511.24,315.55 L 514.92,312.84 L 516.73,311.52 L 520.16,309.07 L 521.84,307.87 L 525.05,305.63 L 526.63,304.54 L 529.65,302.52 L 532.62,300.54 L 538.13,297.10 L 540.83,295.46 L 545.98,292.58 L 548.53,291.19 L 553.56,288.70 L 561.25,285.21 L 564.57,283.78 L 570.70,281.50 L 573.70,280.45 L 579.42,278.86 L 582.26,278.15 L 587.90,277.17 L 596.61,276.29 L 599.19,276.15 M 594.56,277.78 L 593.47,277.85 L 591.56,278.22 L 588.57,279.16 L 587.19,279.66 L 584.48,280.46 L 583.86,280.63 L 582.83,280.85 L 581.74,281.00 L 581.49,281.00 L 580.42,281.21 L 579.81,281.34 L 578.16,281.76 L 577.28,281.99 L 575.26,282.57 L 574.22,282.87 L 572.03,283.53 L 569.83,284.21 L 565.82,285.56 L 564.91,285.87 L 563.46,286.42 L 562.00,287.07 L 561.79,287.19 L 561.02,287.63 L 560.59,287.87 L 559.47,288.52 L 555.50,290.81 L 554.12,291.61 L 551.23,293.09 L 550.55,293.42 L 549.37,293.95 L 548.00,294.46 L 547.67,294.56 L 546.77,294.95 L 546.28,295.17 L 545.07,295.81 L 544.42,296.16 L 542.89,297.04 L 542.09,297.52 L 540.25,298.65 L 539.29,299.25 L 537.14,300.63 L 536.03,301.35 L 533.58,302.97 L 532.31,303.81 L 529.55,305.67 L 525.08,308.74 L 523.00,310.18 L 518.18,313.50 L 517.02,314.31 L 514.89,315.78 L 512.25,317.59 L 510.80,318.58 L 507.94,320.97 L 507.28,321.56 L 506.17,322.65 L 504.97,324.04 L 504.42,324.82 L 502.92,326.24 L 502.55,326.56 L 501.82,327.07 L 500.84,327.55 L 500.52,327.65 L 499.51,328.20 L 498.96,328.52 L 497.60,329.43 L 496.18,330.41 L 492.86,332.98 L 491.21,334.30 L 488.24,336.91 L 487.57,337.52 L 486.47,338.61 L 485.34,339.92 L 484.94,340.49 L 483.96,341.39 L 482.69,342.00 L 482.51,342.00 L 481.61,342.43 L 481.09,342.70 L 479.60,343.62 L 478.80,344.14 L 476.83,345.47 L 475.80,346.18 L 473.47,347.84 L 472.27,348.70 L 469.69,350.60 L 468.38,351.57 L 465.67,353.64 L 457.60,360.04 L 456.18,361.21 L 453.40,363.27 L 452.60,363.84 L 450.54,365.25 L 449.98,365.64 L 448.69,366.51 L 446.45,368.00 L 446.14,368.21 L 445.23,368.88 L 444.73,369.25 L 443.56,370.16 L 439.75,373.25 L 439.14,373.77 L 437.97,374.71 L 437.41,375.15 L 436.43,375.90 L 435.98,376.24 L 435.29,376.70 L 434.72,377.00 L 434.61,377.00 L 433.91,377.35 L 433.50,377.58 L 432.30,378.30 L 431.66,378.70 L 430.14,379.68 L 429.35,380.19 L 427.66,381.32 L 425.96,382.46 L 422.75,384.72 L 422.02,385.25 L 420.82,386.16 L 419.56,387.20 L 419.03,387.69 L 417.79,388.47 L 416.24,389.00 L 416.05,389.00 L 415.38,389.23 L 415.00,389.37 L 414.04,389.84 L 410.68,391.87 L 410.11,392.27 L 408.33,393.36 L 407.36,393.95 L 405.01,395.29 L 397.25,399.48 L 395.98,400.13 L 393.66,401.42 L 392.55,402.05 L 390.72,403.20 L 389.88,403.75 L 388.73,404.63 L 388.50,404.82 L 388.19,405.14 L 388.00,405.50 L 388.00,405.68 L 388.22,406.05 L 388.36,406.24 L 388.81,406.60 L 390.75,407.46 L 392.79,407.95 L 396.27,408.91 L 397.91,409.38 L 400.59,410.29 L 401.83,410.73 L 403.70,411.58 L 405.59,412.79 L 406.07,413.22 L 407.69,414.25 L 408.58,414.77 L 410.78,415.85 L 411.92,416.39 L 414.35,417.37 L 417.90,418.56 L 418.23,418.65 L 419.21,419.04 L 419.73,419.26 L 420.98,419.85 L 425.01,422.00 L 426.30,422.77 L 429.23,424.16 L 429.93,424.47 L 431.21,424.97 L 432.77,425.45 L 433.19,425.54 L 434.19,425.92 L 434.71,426.14 L 435.81,426.71 L 438.82,428.81 L 439.78,429.67 L 441.99,431.37 L 443.13,432.21 L 445.46,433.71 L 446.62,434.42 L 448.78,435.54 L 451.49,436.59 L 452.14,436.75 L 453.67,437.57 L 455.58,439.09 L 456.06,439.62 L 457.16,440.44 L 458.52,441.00 L 458.68,441.00 L 459.27,441.19 L 459.60,441.32 L 460.43,441.72 L 463.34,443.45 L 463.83,443.79 L 465.43,444.78 L 466.31,445.31 L 468.47,446.56 L 475.73,450.60 L 476.93,451.24 L 479.26,452.53 L 480.39,453.16 L 482.39,454.31 L 483.32,454.86 L 484.77,455.75 L 486.08,456.64 L 486.51,457.02 L 487.49,457.60 L 488.67,458.00 L 488.95,458.00 L 489.95,458.62 L 491.59,460.10 L 491.85,460.39 L 492.80,461.15 L 493.34,461.55 L 494.70,462.44 L 499.50,465.10 L 501.15,465.90 L 504.76,467.78 L 505.63,468.23 L 507.17,469.08 L 509.00,470.14 L 510.06,470.80 L 512.41,472.20 L 513.61,472.92 L 516.15,474.41 L 518.73,475.92 L 524.11,478.97 L 526.77,480.47 L 531.76,483.20 L 532.94,483.84 L 535.12,484.99 L 538.00,486.47 L 539.23,487.09 L 541.38,488.17 L 542.41,488.68 L 544.21,489.59 L 545.07,490.03 L 546.60,490.80 L 547.33,491.17 L 548.64,491.85 L 549.91,492.50 L 552.13,493.67 L 555.51,495.50 L 556.61,496.10 L 559.44,497.25 L 560.14,497.51 L 561.49,497.94 L 563.26,498.39 L 563.77,498.48 L 565.12,498.85 L 565.84,499.06 L 567.44,499.60 L 572.25,501.54 L 573.69,502.21 L 576.73,503.26 L 577.45,503.49 L 578.70,503.79 L 580.14,503.99 L 580.50,503.99 L 581.51,504.15 L 582.05,504.25 L 583.29,504.58 L 587.14,505.98 L 588.40,506.55 L 591.40,507.32 L 592.20,507.48 L 593.97,507.71 L 594.88,507.81 L 596.91,507.91 L 597.96,507.95 L 600.28,507.94 L 601.48,507.92 L 604.14,507.78 L 605.51,507.70 L 608.54,507.45 L 610.11,507.31 L 613.54,506.94 L 616.15,506.65 L 621.89,505.63 L 623.26,505.36 L 625.72,504.78 L 628.66,503.94 L 630.22,503.41 L 633.32,502.57 L 634.04,502.39 L 635.26,502.15 L 636.60,502.00 L 637.23,502.00 L 638.41,501.68 L 639.56,500.90 L 639.66,500.75 L 640.08,500.36 L 640.32,500.17 L 640.98,499.73 L 643.44,498.46 L 644.03,498.22 L 645.48,497.49 L 646.25,497.08 L 648.00,496.09 L 649.81,495.04 L 653.92,492.40 L 655.99,491.02 L 660.10,488.10 L 661.09,487.37 L 662.94,485.95 L 665.45,483.92 L 666.29,483.21 L 668.13,481.90 L 668.57,481.61 L 669.36,481.14 L 670.30,480.68 L 670.54,480.59 L 671.08,480.19 L 671.34,479.96 L 671.87,479.35 L 673.13,477.05 L 673.42,476.24 L 674.41,474.78 L 674.67,474.46 L 675.22,473.96 L 676.02,473.49 L 676.22,473.43 L 676.79,473.04 L 677.10,472.80 L 677.86,472.10 L 678.65,471.33 L 680.59,469.12 L 681.59,467.94 L 683.67,465.23 L 686.51,461.10 L 686.65,460.88 L 687.23,459.98 L 687.57,459.47 L 688.46,458.11 L 691.75,453.18 L 692.92,451.45 L 694.94,447.93 L 695.38,447.12 L 696.06,445.72 L 696.64,444.18 L 696.73,443.81 L 697.07,442.78 L 697.26,442.23 L 697.76,440.95 L 699.56,436.94 L 700.19,435.69 L 701.38,432.57 L 701.65,431.80 L 702.09,430.34 L 702.55,428.44 L 702.75,427.36 L 703.31,425.17 L 703.45,424.66 L 703.74,423.78 L 704.13,422.82 L 704.25,422.59 L 704.60,421.43 L 704.80,420.76 L 705.26,418.89 L 705.49,417.90 L 706.00,415.57 L 706.75,411.82 L 707.05,410.23 L 707.49,406.41 L 707.69,404.41 L 707.94,399.98 L 708.04,397.72 L 708.10,392.97 L 708.11,390.59 L 708.00,385.80 L 707.93,383.43 L 707.65,378.90 L 707.49,376.69 L 707.05,372.69 L 706.81,370.78 L 706.23,367.60 L 706.07,366.87 L 705.73,365.61 L 705.19,364.05 L 704.92,363.43 L 704.30,361.84 L 703.98,361.01 L 703.32,359.17 L 701.59,353.83 L 701.32,352.89 L 700.56,350.78 L 700.16,349.69 L 699.16,347.34 L 698.12,344.94 L 695.49,339.75 L 694.11,337.15 L 691.07,332.04 L 686.43,325.17 L 685.71,324.21 L 683.86,321.93 L 682.89,320.75 L 680.67,318.16 L 678.40,315.53 L 673.51,310.21 L 672.32,308.94 L 670.09,306.63 L 669.01,305.53 L 667.15,303.70 L 666.28,302.87 L 664.97,301.73 L 664.69,301.49 L 664.25,301.19 L 663.83,301.00 L 663.73,301.00 L 663.31,300.78 L 663.07,300.64 L 662.40,300.19 L 659.92,298.25 L 659.03,297.49 L 656.63,295.85 L 655.34,295.00 L 652.28,293.24 L 650.69,292.35 L 647.14,290.55 L 645.32,289.65 L 641.45,287.89 L 637.54,286.16 L 629.49,283.13 L 627.52,282.44 L 623.75,281.26 L 618.50,279.88 L 617.95,279.76 L 616.12,279.47 L 615.11,279.32 L 612.61,279.00 L 604.06,278.15 L 602.93,278.06 L 600.98,277.92 L 600.05,277.86 L 598.44,277.78 L 596.91,277.71 Z" fill="rgba(31,183,149,1)"/>
<path d="M 232.64,155.39 L 234.86,155.55 L 239.14,156.04 L 241.26,156.32 L 245.36,157.07 L 247.39,157.48 L 251.32,158.49 L 253.26,159.03 L 257.02,160.30 L 258.89,160.97 L 262.50,162.51 L 264.28,163.32 L 267.75,165.13 L 269.46,166.07 L 272.80,168.15 L 277.66,171.60 L 279.06,172.66 L 281.63,174.81 L 282.88,175.89 L 285.19,178.09 L 287.44,180.30 L 291.22,185.01 L 293.02,187.43 L 296.05,192.74 L 296.76,194.12 L 298.09,197.03 L 299.94,201.67 L 300.69,203.72 L 301.93,207.37 L 302.51,209.18 L 303.46,212.77 L 303.90,214.62 L 304.60,218.76 L 304.77,219.85 L 305.05,222.24 L 305.19,223.48 L 305.43,226.21 L 305.55,227.62 L 305.75,230.76 L 305.84,232.39 L 306.01,236.02 L 306.09,237.90 L 306.23,242.09 L 306.30,244.26 L 306.42,249.08 L 306.48,251.57 L 306.59,257.10 L 306.64,259.96 L 306.74,266.28 L 306.78,269.54 L 306.88,276.70 L 307.02,288.50 L 307.06,291.54 L 307.13,297.23 L 307.16,300.01 L 307.23,305.19 L 307.27,307.72 L 307.34,312.42 L 307.38,314.71 L 307.45,318.96 L 307.48,321.03 L 307.56,324.85 L 307.59,326.71 L 307.67,330.14 L 307.71,331.80 L 307.79,334.85 L 307.83,336.34 L 307.92,339.04 L 307.96,340.36 L 308.05,342.75 L 308.10,343.90 L 308.19,346.00 L 308.29,348.03 L 308.51,351.34 L 308.63,352.88 L 308.89,355.37 L 309.32,358.42 L 309.60,359.98 L 310.02,362.53 L 310.21,363.71 L 310.41,365.55 L 310.48,366.38 L 310.41,367.55 L 310.34,368.06 L 309.94,368.61 L 309.70,368.81 L 308.93,368.78 L 308.49,368.69 L 307.29,368.13 L 306.64,367.78 L 304.96,366.72 L 304.05,366.13 L 301.84,364.62 L 301.40,364.32 L 300.32,363.62 L 299.75,363.25 L 298.45,362.44 L 297.10,361.61 L 293.95,359.74 L 283.97,354.16 L 280.09,352.11 L 272.47,348.33 L 270.53,347.39 L 266.51,345.51 L 264.45,344.56 L 260.09,342.62 L 257.85,341.64 L 253.01,339.58 L 250.51,338.52 L 245.03,336.27 L 242.20,335.11 L 235.94,332.61 L 225.50,328.48 L 222.07,327.14 L 215.61,324.49 L 212.44,323.18 L 206.47,320.57 L 203.55,319.28 L 198.08,316.70 L 195.40,315.41 L 190.38,312.84 L 187.93,311.56 L 183.36,308.98 L 181.13,307.69 L 176.98,305.09 L 174.96,303.79 L 171.21,301.15 L 169.39,299.82 L 166.03,297.12 L 164.40,295.76 L 161.40,292.99 L 159.94,291.59 L 157.29,288.73 L 156.00,287.29 L 153.67,284.31 L 152.54,282.81 L 150.51,279.72 L 149.53,278.15 L 147.79,274.91 L 146.95,273.28 L 145.46,269.88 L 144.75,268.16 L 143.51,264.59 L 141.90,259.02 L 141.37,256.94 L 140.65,252.48 L 140.34,250.21 L 140.06,245.46 L 139.97,243.06 L 140.10,238.13 L 140.22,235.66 L 140.76,230.69 L 141.08,228.21 L 142.01,223.30 L 142.52,220.86 L 143.82,216.13 L 144.52,213.80 L 146.18,209.36 L 149.06,203.18 L 150.13,201.18 L 152.45,197.36 L 153.63,195.47 L 156.16,191.87 L 157.45,190.10 L 160.18,186.72 L 161.57,185.06 L 164.50,181.92 L 165.98,180.38 L 169.09,177.48 L 170.66,176.07 L 173.94,173.42 L 175.60,172.12 L 179.03,169.73 L 180.76,168.57 L 184.34,166.43 L 186.15,165.40 L 189.85,163.54 L 191.73,162.64 L 195.55,161.06 L 197.48,160.30 L 201.42,159.00 L 203.40,158.38 L 207.44,157.37 L 209.47,156.90 L 213.59,156.19 L 215.66,155.87 L 219.85,155.46 L 221.95,155.29 L 226.20,155.19 M 234.93,158.13 L 233.16,158.17 L 232.13,158.21 L 229.98,158.30 L 228.74,158.36 L 222.80,158.72 L 219.16,159.00 L 217.49,159.16 L 214.26,159.50 L 212.80,159.69 L 209.99,160.10 L 208.73,160.32 L 206.33,160.78 L 205.28,161.04 L 203.28,161.56 L 202.44,161.85 L 200.85,162.44 L 200.21,162.75 L 199.02,163.40 L 198.58,163.75 L 195.60,165.36 L 193.38,166.00 L 192.42,166.00 L 189.64,166.49 L 188.22,167.27 L 187.81,167.86 L 186.95,168.77 L 186.11,169.48 L 185.60,169.87 L 183.32,171.45 L 182.11,172.11 L 178.52,174.09 L 177.46,174.69 L 177.03,174.93 L 176.26,175.37 L 176.02,175.51 L 175.36,175.99 L 174.77,176.47 L 174.42,176.79 L 172.85,178.22 L 171.89,179.14 L 169.88,181.11 L 168.80,182.21 L 166.58,184.47 L 165.48,185.63 L 163.30,187.94 L 162.29,189.03 L 160.37,191.15 L 159.59,192.05 L 158.16,193.72 L 157.70,194.31 L 157.30,194.86 L 157.18,195.05 L 157.00,195.38 L 157.00,195.46 L 156.75,196.24 L 156.36,197.03 L 156.08,197.52 L 154.72,199.70 L 153.86,200.88 L 151.54,204.80 L 150.95,206.12 L 150.75,206.70 L 150.41,207.82 L 150.36,208.24 L 149.70,210.75 L 148.96,212.28 L 148.49,212.91 L 147.48,214.06 L 146.94,214.43 L 145.82,215.00 L 145.28,215.00 L 144.55,215.44 L 144.37,216.15 L 144.43,216.67 L 144.65,217.82 L 144.90,218.52 L 145.51,220.00 L 145.96,220.83 L 146.08,221.66 L 146.00,222.44 L 145.89,222.92 L 145.27,224.99 L 144.74,226.07 L 143.61,229.56 L 143.08,232.51 L 142.93,234.20 L 142.69,237.72 L 142.68,239.59 L 142.72,243.37 L 142.83,245.27 L 143.13,249.04 L 143.36,250.83 L 143.89,254.30 L 144.24,255.83 L 144.99,258.72 L 145.44,259.84 L 145.91,260.91 L 146.16,261.35 L 146.67,262.15 L 146.94,262.44 L 147.88,263.75 L 148.43,264.85 L 148.67,265.50 L 149.49,268.33 L 149.69,270.02 L 150.15,272.77 L 150.58,274.31 L 150.89,275.01 L 151.56,276.35 L 152.02,277.01 L 153.01,278.33 L 153.66,279.05 L 156.02,281.97 L 156.57,282.78 L 156.74,283.09 L 157.00,283.65 L 157.00,283.79 L 157.22,284.56 L 157.56,285.21 L 157.80,285.59 L 158.96,287.19 L 159.67,287.99 L 161.14,289.54 L 161.81,290.10 L 162.45,290.60 L 162.72,290.76 L 163.23,291.00 L 163.40,291.00 L 164.05,291.23 L 164.59,291.59 L 164.90,291.86 L 166.19,293.11 L 166.78,293.91 L 169.22,296.18 L 171.20,297.32 L 172.09,297.52 L 174.51,298.55 L 175.10,299.02 L 175.31,299.29 L 175.67,299.83 L 175.74,300.11 L 176.52,301.06 L 177.58,301.96 L 178.31,302.51 L 179.90,303.66 L 180.81,304.28 L 182.71,305.55 L 183.71,306.18 L 185.72,307.42 L 186.69,307.99 L 188.59,309.09 L 189.44,309.53 L 191.03,310.34 L 191.64,310.60 L 192.72,311.00 L 193.00,311.00 L 193.96,311.27 L 195.06,311.68 L 195.77,311.98 L 197.29,312.64 L 198.15,313.02 L 199.91,313.82 L 200.82,314.25 L 204.47,316.00 L 205.96,316.77 L 207.36,317.51 L 207.88,317.81 L 208.79,318.35 L 209.00,318.52 L 209.89,319.04 L 210.72,319.39 L 211.21,319.55 L 213.34,320.16 L 214.41,320.33 L 216.23,320.80 L 217.59,321.31 L 218.29,321.64 L 221.07,323.13 L 222.10,323.96 L 225.65,326.17 L 226.80,326.64 L 227.34,326.78 L 228.37,327.00 L 228.81,327.00 L 231.64,327.61 L 233.63,328.50 L 234.35,329.06 L 235.84,330.06 L 236.79,330.48 L 237.30,330.59 L 238.38,330.74 L 239.02,330.72 L 240.38,330.63 L 241.24,330.50 L 243.66,330.25 L 244.85,330.32 L 245.36,330.52 L 246.35,331.03 L 246.90,331.51 L 248.06,332.61 L 248.83,333.44 L 251.97,336.12 L 253.05,336.82 L 253.53,337.07 L 254.47,337.50 L 254.83,337.57 L 256.37,338.02 L 257.77,338.51 L 258.59,338.82 L 262.13,340.21 L 263.88,341.00 L 267.06,342.32 L 268.74,342.90 L 269.42,343.05 L 270.68,343.26 L 271.20,343.24 L 272.20,343.11 L 272.66,342.94 L 273.92,342.56 L 274.54,342.52 L 274.77,342.61 L 275.21,342.89 L 275.39,343.16 L 275.74,343.80 L 275.92,344.26 L 277.12,346.45 L 278.21,347.71 L 278.88,348.23 L 280.31,349.18 L 281.14,349.54 L 282.87,350.17 L 283.83,350.35 L 286.93,351.39 L 289.01,352.44 L 289.72,352.99 L 291.87,354.41 L 292.52,354.74 L 292.79,354.84 L 293.29,355.00 L 293.45,355.00 L 294.14,355.24 L 294.77,355.62 L 295.14,355.89 L 296.74,357.21 L 297.54,358.04 L 298.53,359.02 L 299.00,359.39 L 299.92,360.06 L 300.36,360.29 L 301.24,360.66 L 301.68,360.75 L 302.54,360.85 L 302.98,360.79 L 304.35,360.50 L 304.94,360.12 L 305.12,359.76 L 305.40,358.91 L 305.46,358.22 L 305.55,356.64 L 305.57,355.50 L 305.50,352.86 L 305.35,350.63 L 305.25,349.38 L 304.71,344.10 L 304.36,341.67 L 303.85,336.98 L 303.62,333.41 L 303.55,331.44 L 303.45,327.41 L 303.46,325.27 L 303.51,320.92 L 303.59,318.67 L 303.75,313.79 L 303.85,310.25 L 303.89,308.38 L 304.06,300.59 L 304.12,296.43 L 304.24,287.98 L 304.28,283.72 L 304.34,275.22 L 304.36,271.14 L 304.37,267.12 L 304.37,265.18 L 304.37,261.38 L 304.36,259.59 L 304.34,256.09 L 304.33,254.48 L 304.30,251.35 L 304.28,249.96 L 304.23,247.28 L 304.21,246.13 L 304.15,243.98 L 304.11,243.13 L 304.04,241.57 L 304.00,241.05 L 303.91,240.16 L 303.86,240.00 L 303.53,238.35 L 303.30,236.72 L 303.19,235.71 L 302.78,231.27 L 302.66,228.91 L 302.36,225.07 L 302.07,222.73 L 301.88,221.71 L 301.48,219.77 L 301.25,218.98 L 300.77,217.52 L 300.50,216.99 L 299.31,213.41 L 299.18,212.14 L 299.20,211.45 L 299.27,210.02 L 299.38,209.22 L 299.61,206.82 L 299.57,205.58 L 299.43,205.05 L 299.08,204.02 L 298.76,203.50 L 298.03,202.45 L 297.50,201.81 L 295.73,198.92 L 295.32,197.90 L 295.20,197.43 L 295.00,196.52 L 295.00,196.14 L 294.65,194.52 L 294.03,193.25 L 293.51,192.49 L 292.32,190.87 L 291.48,189.89 L 289.64,187.81 L 288.45,186.56 L 285.83,183.74 L 284.21,181.94 L 283.53,181.15 L 282.25,179.64 L 281.80,179.06 L 281.03,178.05 L 280.89,177.79 L 279.26,175.90 L 277.65,174.59 L 276.73,174.02 L 274.85,172.94 L 273.97,172.58 L 272.27,172.00 L 271.64,172.00 L 270.68,171.80 L 269.89,171.48 L 269.44,171.25 L 267.59,170.15 L 266.76,169.45 L 263.29,166.91 L 260.78,165.42 L 259.43,164.78 L 256.69,163.57 L 255.24,163.09 L 252.31,162.19 L 250.79,161.86 L 246.40,160.63 L 245.09,160.15 L 244.55,159.91 L 243.56,159.45 L 243.25,159.25 L 241.60,158.53 L 240.10,158.24 L 239.02,158.17 L 237.88,158.12 L 237.20,158.11 L 235.77,158.11 M 200.51,173.18 L 200.75,173.42 L 200.95,173.86 L 200.87,174.17 L 200.59,174.81 L 200.30,175.10 L 199.34,175.66 L 198.81,175.50 L 198.60,175.16 L 198.50,174.27 L 198.80,173.70 L 199.05,173.50 L 199.61,173.15 L 199.91,173.12 Z" fill="rgba(90,30,178,1)"/>
<path d="M 237.20,158.11 L 237.88,158.12 L 239.02,158.17 L 240.10,158.24 L 241.60,158.53 L 243.25,159.25 L 243.56,159.45 L 244.55,159.91 L 245.09,160.15 L 246.40,160.63 L 250.79,161.86 L 252.31,162.19 L 255.24,163.09 L 256.69,163.57 L 259.43,164.78 L 260.78,165.42 L 263.29,166.91 L 266.76,169.45 L 267.59,170.15 L 269.44,171.25 L 269.89,171.48 L 270.68,171.80 L 271.64,172.00 L 272.27,172.00 L 273.97,172.58 L 274.85,172.94 L 276.73,174.02 L 277.65,174.59 L 279.26,175.90 L 280.89,177.79 L 281.03,178.05 L 281.80,179.06 L 282.25,179.64 L 283.53,181.15 L 284.21,181.94 L 285.83,183.74 L 288.45,186.56 L 289.64,187.81 L 291.48,189.89 L 292.32,190.87 L 293.51,192.49 L 294.03,193.25 L 294.65,194.52 L 295.00,196.14 L 295.00,196.52 L 295.20,197.43 L 295.32,197.90 L 295.73,198.92 L 297.50,201.81 L 298.03,202.45 L 298.76,203.50 L 299.08,204.02 L 299.43,205.05 L 299.57,205.58 L 299.61,206.82 L 299.38,209.22 L 299.27,210.02 L 299.20,211.45 L 299.18,212.14 L 299.31,213.41 L 300.50,216.99 L 300.77,217.52 L 301.25,218.98 L 301.48,219.77 L 301.88,221.71 L 302.07,222.73 L 302.36,225.07 L 302.66,228.91 L 302.78,231.27 L 303.19,235.71 L 303.30,236.72 L 303.53,238.35 L 303.86,240.00 L 303.91,240.16 L 304.00,241.05 L 304.04,241.57 L 304.11,243.13 L 304.15,243.98 L 304.21,246.13 L 304.23,247.28 L 304.28,249.96 L 304.30,251.35 L 304.33,254.48 L 304.34,256.09 L 304.36,259.59 L 304.37,261.38 L 304.37,265.18 L 304.37,267.12 L 304.36,271.14 L 304.34,275.22 L 304.28,283.72 L 304.24,287.98 L 304.12,296.43 L 304.06,300.59 L 303.89,308.38 L 303.85,310.25 L 303.75,313.79 L 303.59,318.67 L 303.51,320.92 L 303.46,325.27 L 303.45,327.41 L 303.55,331.44 L 303.62,333.41 L 303.85,336.98 L 304.36,341.67 L 304.71,344.10 L 305.25,349.38 L 305.35,350.63 L 305.50,352.86 L 305.57,355.50 L 305.55,356.64 L 305.46,358.22 L 305.40,358.91 L 305.12,359.76 L 304.94,360.12 L 304.35,360.50 L 302.98,360.79 L 302.54,360.85 L 301.68,360.75 L 301.24,360.66 L 300.36,360.29 L 299.92,360.06 L 299.00,359.39 L 298.53,359.02 L 297.54,358.04 L 296.74,357.21 L 295.14,355.89 L 294.77,355.62 L 294.14,355.24 L 293.45,355.00 L 293.29,355.00 L 292.79,354.84 L 292.52,354.74 L 291.87,354.41 L 289.72,352.99 L 289.01,352.44 L 286.93,351.39 L 283.83,350.35 L 282.87,350.17 L 281.14,349.54 L 280.31,349.18 L 278.88,348.23 L 278.21,347.71 L 277.12,346.45 L 275.92,344.26 L 275.74,343.80 L 275.39,343.16 L 275.21,342.89 L 274.77,342.61 L 274.54,342.52 L 273.92,342.56 L 272.66,342.94 L 272.20,343.11 L 271.20,343.24 L 270.68,343.26 L 269.42,343.05 L 268.74,342.90 L 267.06,342.32 L 263.88,341.00 L 262.13,340.21 L 258.59,338.82 L 257.77,338.51 L 256.37,338.02 L 254.83,337.57 L 254.47,337.50 L 253.53,337.07 L 253.05,336.82 L 251.97,336.12 L 248.83,333.44 L 248.06,332.61 L 246.90,331.51 L 246.35,331.03 L 245.36,330.52 L 244.85,330.32 L 243.66,330.25 L 241.24,330.50 L 240.38,330.63 L 239.02,330.72 L 238.38,330.74 L 237.30,330.59 L 236.79,330.48 L 235.84,330.06 L 234.35,329.06 L 233.63,328.50 L 231.64,327.61 L 228.81,327.00 L 228.37,327.00 L 227.34,326.78 L 226.80,326.64 L 225.65,326.17 L 222.10,323.96 L 221.07,323.13 L 218.29,321.64 L 217.59,321.31 L 216.23,320.80 L 214.41,320.33 L 213.34,320.16 L 211.21,319.55 L 210.72,319.39 L 209.89,319.04 L 209.00,318.52 L 208.79,318.35 L 207.88,317.81 L 207.36,317.51 L 205.96,316.77 L 204.47,316.00 L 200.82,314.25 L 199.91,313.82 L 198.15,313.02 L 197.29,312.64 L 195.77,311.98 L 195.06,311.68 L 193.96,311.27 L 193.00,311.00 L 192.72,311.00 L 191.64,310.60 L 191.03,310.34 L 189.44,309.53 L 188.59,309.09 L 186.69,307.99 L 185.72,307.42 L 183.71,306.18 L 182.71,305.55 L 180.81,304.28 L 179.90,303.66 L 178.31,302.51 L 177.58,301.96 L 176.52,301.06 L 175.74,300.11 L 175.67,299.83 L 175.31,299.29 L 175.10,299.02 L 174.51,298.55 L 172.09,297.52 L 171.20,297.32 L 169.22,296.18 L 166.78,293.91 L 166.19,293.11 L 164.90,291.86 L 164.59,291.59 L 164.05,291.23 L 163.40,291.00 L 163.23,291.00 L 162.72,290.76 L 162.45,290.60 L 161.81,290.10 L 161.14,289.54 L 159.67,287.99 L 158.96,287.19 L 157.80,285.59 L 157.56,285.21 L 157.22,284.56 L 157.00,283.79 L 157.00,283.65 L 156.74,283.09 L 156.57,282.78 L 156.02,281.97 L 153.66,279.05 L 153.01,278.33 L 152.02,277.01 L 151.56,276.35 L 150.89,275.01 L 150.58,274.31 L 150.15,272.77 L 149.69,270.02 L 149.49,268.33 L 148.67,265.50 L 148.43,264.85 L 147.88,263.75 L 146.94,262.44 L 146.67,262.15 L 146.16,261.35 L 145.91,260.91 L 145.44,259.84 L 144.99,258.72 L 144.24,255.83 L 143.89,254.30 L 143.36,250.83 L 143.13,249.04 L 142.83,245.27 L 142.72,243.37 L 142.68,239.59 L 142.69,237.72 L 142.93,234.20 L 143.08,232.51 L 143.61,229.56 L 144.74,226.07 L 145.27,224.99 L 145.89,222.92 L 146.00,222.44 L 146.08,221.66 L 145.96,220.83 L 145.51,220.00 L 144.90,218.52 L 144.65,217.82 L 144.43,216.67 L 144.37,216.15 L 144.55,215.44 L 145.28,215.00 L 145.82,215.00 L 146.94,214.43 L 147.48,214.06 L 148.49,212.91 L 148.96,212.28 L 149.70,210.75 L 150.36,208.24 L 150.41,207.82 L 150.75,206.70 L 150.95,206.12 L 151.54,204.80 L 153.86,200.88 L 154.72,199.70 L 156.08,197.52 L 156.36,197.03 L 156.75,196.24 L 157.00,195.46 L 157.00,195.38 L 157.18,195.05 L 157.30,194.86 L 157.70,194.31 L 158.16,193.72 L 159.59,192.05 L 160.37,191.15 L 162.29,189.03 L 163.30,187.94 L 165.48,185.63 L 166.58,184.47 L 168.80,182.21 L 169.88,181.11 L 171.89,179.14 L 172.85,178.22 L 174.42,176.79 L 174.77,176.47 L 175.36,175.99 L 176.02,175.51 L 176.26,175.37 L 177.03,174.93 L 177.46,174.69 L 178.52,174.09 L 182.11,172.11 L 183.32,171.45 L 185.60,169.87 L 186.11,169.48 L 186.95,168.77 L 187.81,167.86 L 188.22,167.27 L 189.64,166.49 L 192.42,166.00 L 193.38,166.00 L 195.60,165.36 L 198.58,163.75 L 199.02,163.40 L 200.21,162.75 L 200.85,162.44 L 202.44,161.85 L 203.28,161.56 L 205.28,161.04 L 206.33,160.78 L 208.73,160.32 L 209.99,160.10 L 212.80,159.69 L 214.26,159.50 L 217.49,159.16 L 219.16,159.00 L 222.80,158.72 L 228.74,158.36 L 229.98,158.30 L 232.13,158.21 L 233.16,158.17 L 234.93,158.13 L 235.77,158.11 M 199.61,173.15 L 199.05,173.50 L 198.80,173.70 L 198.50,174.27 L 198.60,175.16 L 198.81,175.50 L 199.34,175.66 L 200.30,175.10 L 200.59,174.81 L 200.87,174.17 L 200.95,173.86 L 200.75,173.42 L 200.51,173.18 L 199.91,173.12 Z" fill="rgba(92,21,197,1)"/>
<path d="M 435.80,619.75 L 435.78,622.43 L 435.75,627.31 L 435.73,629.67 L 435.70,633.95 L 435.68,636.02 L 435.64,639.75 L 435.63,641.54 L 435.59,644.76 L 435.57,646.30 L 435.52,649.04 L 435.50,650.36 L 435.45,652.68 L 435.42,653.79 L 435.36,655.73 L 435.32,656.65 L 435.25,658.25 L 435.21,659.02 L 435.12,660.32 L 435.07,660.95 L 434.96,662.01 L 434.85,663.01 L 434.56,664.47 L 434.40,665.13 L 434.01,666.16 L 433.30,667.62 L 432.42,669.26 L 430.63,672.00 L 429.72,673.30 L 427.76,675.47 L 426.75,676.50 L 424.47,678.24 L 420.55,680.52 L 419.77,680.90 L 418.00,681.58 L 417.09,681.91 L 415.10,682.48 L 413.07,683.02 L 408.57,683.73 L 406.29,684.02 L 401.64,684.18 L 399.34,684.18 L 395.00,683.74 L 393.80,683.57 L 391.44,683.02 L 390.27,682.71 L 388.01,681.91 L 386.90,681.49 L 384.76,680.46 L 383.71,679.91 L 381.72,678.67 L 380.74,678.02 L 378.93,676.58 L 378.04,675.83 L 376.43,674.21 L 375.65,673.37 L 374.26,671.59 L 372.45,668.74 L 372.06,668.02 L 371.44,666.83 L 371.16,666.27 L 370.79,665.33 L 370.65,664.88 L 370.61,664.07 L 370.63,663.67 L 370.98,662.89 L 371.20,662.50 L 371.98,661.64 L 372.43,661.20 L 373.71,660.17 L 374.42,659.62 L 376.26,658.31 L 379.72,655.91 L 387.35,650.64 L 388.92,653.03 L 389.62,654.08 L 391.00,655.92 L 391.69,656.80 L 393.07,658.29 L 393.76,658.99 L 395.16,660.15 L 395.86,660.68 L 397.28,661.50 L 397.99,661.87 L 399.44,662.36 L 400.17,662.56 L 401.67,662.73 L 402.43,662.77 L 403.98,662.62 L 406.39,662.04 L 407.27,661.75 L 408.71,661.17 L 409.39,660.86 L 410.46,659.96 L 410.96,659.44 L 411.73,657.87 L 411.91,657.42 L 412.21,656.32 L 412.36,655.74 L 412.61,654.35 L 412.72,653.61 L 412.92,651.89 L 413.01,650.98 L 413.16,648.87 L 413.24,647.76 L 413.35,645.22 L 413.41,643.89 L 413.50,640.88 L 413.54,639.31 L 413.60,635.78 L 413.63,633.95 L 413.69,629.86 L 413.71,627.74 L 413.76,623.03 L 413.82,615.25 L 414.14,576.00 L 436.10,576.00 M 849.22,600.45 L 850.93,600.53 L 854.31,601.06 L 855.99,601.38 L 859.26,602.36 L 860.89,602.91 L 864.03,604.36 L 868.57,607.05 L 869.68,607.81 L 872.08,609.97 L 873.27,611.10 L 875.46,613.56 L 876.49,614.78 L 878.00,616.99 L 878.31,617.50 L 878.73,618.37 L 878.98,619.40 L 878.97,619.53 L 878.32,620.21 L 877.89,620.60 L 876.57,621.66 L 875.84,622.23 L 874.08,623.54 L 873.16,624.21 L 871.18,625.60 L 870.18,626.29 L 868.21,627.61 L 867.25,628.25 L 865.51,629.34 L 864.69,629.84 L 863.41,630.55 L 862.26,631.00 L 862.15,631.00 L 861.74,630.72 L 861.51,630.55 L 860.90,629.97 L 858.71,627.51 L 857.73,626.27 L 855.71,624.37 L 854.68,623.51 L 852.52,622.32 L 851.42,621.81 L 849.06,621.30 L 845.22,621.28 L 844.12,621.40 L 842.12,621.91 L 841.15,622.20 L 839.41,623.05 L 838.57,623.52 L 837.08,624.72 L 836.36,625.36 L 835.13,626.90 L 834.54,627.71 L 833.56,629.60 L 833.10,630.58 L 832.38,632.81 L 832.05,633.97 L 831.57,636.55 L 831.15,640.81 L 831.04,642.96 L 831.25,646.75 L 831.42,648.57 L 832.22,651.76 L 832.70,653.29 L 834.11,655.95 L 836.95,659.45 L 837.69,660.16 L 839.34,661.27 L 840.19,661.78 L 842.01,662.49 L 842.93,662.80 L 844.86,663.11 L 845.83,663.22 L 847.80,663.15 L 848.78,663.06 L 850.74,662.60 L 851.71,662.32 L 853.58,661.48 L 854.50,661.01 L 856.23,659.79 L 858.61,657.55 L 859.46,656.57 L 861.05,655.04 L 861.40,654.72 L 861.98,654.28 L 862.55,654.00 L 862.73,654.00 L 863.68,654.44 L 864.23,654.72 L 865.74,655.61 L 866.54,656.10 L 868.40,657.28 L 869.35,657.90 L 871.32,659.23 L 872.31,659.90 L 874.18,661.23 L 875.09,661.87 L 876.64,663.04 L 877.35,663.59 L 878.35,664.44 L 879.00,665.21 L 879.00,665.45 L 878.72,666.19 L 878.54,666.60 L 877.94,667.60 L 877.29,668.65 L 875.35,671.15 L 874.33,672.41 L 872.08,674.80 L 871.52,675.36 L 870.46,676.34 L 868.98,677.51 L 867.87,678.28 L 865.43,679.64 L 864.18,680.28 L 861.52,681.36 L 860.16,681.87 L 857.33,682.67 L 855.90,683.04 L 852.94,683.56 L 851.45,683.78 L 848.43,684.01 L 846.91,684.09 L 843.87,684.02 L 842.36,683.94 L 839.35,683.56 L 837.86,683.33 L 834.95,682.64 L 833.43,682.23 L 830.62,681.13 L 829.24,680.53 L 826.63,678.99 L 825.34,678.16 L 822.82,676.12 L 819.03,672.42 L 817.62,670.89 L 815.21,667.40 L 814.07,665.60 L 812.20,661.65 L 811.34,659.63 L 810.05,655.34 L 809.48,653.16 L 808.77,648.65 L 808.49,646.38 L 808.38,641.76 L 808.40,639.45 L 808.90,634.85 L 809.23,632.56 L 810.36,628.09 L 812.78,621.67 L 813.77,619.54 L 815.85,615.99 L 816.93,614.31 L 819.30,611.50 L 820.54,610.18 L 823.37,607.94 L 828.34,605.00 L 830.06,604.16 L 833.55,602.81 L 835.29,602.20 L 838.79,601.32 L 840.54,600.94 L 844.03,600.53 L 845.77,600.39 M 605.35,574.45 L 610.80,575.11 L 613.50,575.55 L 618.70,577.08 L 621.24,577.95 L 625.98,580.34 L 627.12,581.00 L 629.29,582.46 L 632.34,584.91 L 633.56,586.01 L 635.93,588.52 L 637.07,589.78 L 638.99,592.23 L 639.43,592.82 L 640.16,593.91 L 640.50,594.43 L 641.00,595.34 L 641.21,595.77 L 641.44,596.45 L 641.41,597.14 L 641.32,597.30 L 640.54,597.96 L 640.07,598.34 L 638.71,599.36 L 637.98,599.90 L 636.24,601.12 L 635.34,601.74 L 633.43,603.03 L 632.48,603.67 L 630.61,604.89 L 629.70,605.48 L 628.09,606.48 L 627.34,606.94 L 626.19,607.58 L 625.21,608.00 L 625.09,608.00 L 624.63,607.70 L 624.38,607.51 L 623.71,606.90 L 621.32,604.25 L 620.22,602.89 L 617.57,600.59 L 616.18,599.52 L 613.04,597.85 L 611.42,597.11 L 607.94,596.15 L 602.50,595.56 L 601.18,595.57 L 598.72,595.82 L 597.52,595.98 L 595.33,596.54 L 594.27,596.85 L 592.39,597.68 L 591.50,598.13 L 589.97,599.20 L 589.25,599.76 L 588.11,601.05 L 587.59,601.71 L 586.88,603.18 L 586.58,603.93 L 586.33,605.55 L 586.53,608.12 L 586.65,608.67 L 587.09,609.69 L 587.36,610.20 L 588.12,611.15 L 588.55,611.63 L 589.70,612.55 L 590.32,613.00 L 591.90,613.91 L 592.74,614.37 L 594.80,615.29 L 595.89,615.76 L 598.48,616.73 L 599.85,617.23 L 603.02,618.27 L 608.50,619.96 L 610.67,620.60 L 614.41,621.75 L 616.19,622.30 L 619.24,623.31 L 620.69,623.81 L 623.17,624.74 L 624.34,625.20 L 626.37,626.11 L 627.33,626.57 L 629.02,627.52 L 629.83,628.00 L 631.31,629.04 L 635.51,632.77 L 636.90,634.19 L 639.10,637.29 L 640.10,638.88 L 641.50,642.34 L 642.11,644.11 L 642.71,647.92 L 642.73,654.04 L 642.57,655.79 L 641.87,659.12 L 641.45,660.75 L 640.26,663.83 L 639.60,665.33 L 637.92,668.13 L 637.03,669.50 L 634.90,672.00 L 633.78,673.21 L 631.22,675.40 L 629.89,676.45 L 626.92,678.30 L 625.38,679.17 L 622.01,680.66 L 616.54,682.45 L 615.66,682.68 L 613.57,683.05 L 612.48,683.23 L 610.05,683.49 L 607.56,683.73 L 602.08,683.87 L 599.34,683.89 L 594.08,683.58 L 592.83,683.48 L 590.52,683.18 L 589.42,683.02 L 587.50,682.61 L 586.12,682.28 L 582.98,681.14 L 581.39,680.51 L 578.13,678.93 L 576.53,678.11 L 573.55,676.31 L 569.84,673.57 L 569.39,673.18 L 568.39,672.18 L 567.88,671.66 L 566.79,670.45 L 565.70,669.21 L 563.58,666.50 L 563.08,665.83 L 562.17,664.56 L 561.74,663.94 L 561.03,662.83 L 560.71,662.31 L 560.28,661.45 L 560.00,660.56 L 560.00,660.38 L 560.66,659.65 L 561.09,659.24 L 562.43,658.15 L 563.17,657.58 L 564.97,656.28 L 565.91,655.61 L 567.94,654.25 L 568.97,653.57 L 571.02,652.28 L 572.02,651.66 L 573.86,650.61 L 574.73,650.12 L 576.13,649.44 L 577.50,649.00 L 577.88,649.00 L 578.65,649.58 L 579.49,650.96 L 579.61,651.34 L 580.17,652.25 L 580.50,652.73 L 581.41,653.79 L 582.39,654.88 L 585.01,657.18 L 586.37,658.29 L 589.20,660.21 L 589.89,660.63 L 591.17,661.31 L 592.88,661.98 L 594.34,662.39 L 597.78,662.82 L 599.55,662.97 L 603.22,662.92 L 605.04,662.84 L 608.44,662.32 L 609.25,662.17 L 610.72,661.77 L 612.67,661.06 L 613.80,660.55 L 615.57,659.43 L 616.38,658.85 L 617.54,657.54 L 618.04,656.85 L 618.65,655.27 L 619.00,652.50 L 619.00,651.71 L 618.82,650.32 L 618.69,649.64 L 618.19,648.43 L 617.88,647.85 L 616.96,646.76 L 616.44,646.23 L 615.00,645.22 L 614.21,644.72 L 612.16,643.71 L 611.05,643.20 L 608.31,642.15 L 606.84,641.61 L 603.30,640.44 L 597.00,638.50 L 595.04,637.91 L 591.51,636.79 L 589.81,636.24 L 586.76,635.16 L 585.29,634.62 L 582.67,633.55 L 581.40,633.02 L 579.15,631.94 L 578.07,631.40 L 576.14,630.28 L 575.21,629.71 L 573.55,628.53 L 569.31,624.61 L 568.13,623.27 L 566.33,620.64 L 565.52,619.31 L 564.39,616.47 L 563.89,615.00 L 563.33,611.69 L 563.01,605.88 L 563.01,603.77 L 563.60,599.88 L 563.99,597.99 L 565.40,594.46 L 566.21,592.74 L 568.47,589.48 L 572.90,584.78 L 573.86,583.92 L 575.93,582.35 L 576.99,581.60 L 579.23,580.25 L 581.52,578.95 L 586.50,577.01 L 589.05,576.15 L 594.39,575.08 L 597.09,574.65 L 602.59,574.45 M 503.12,575.03 L 506.81,575.21 L 508.60,575.33 L 511.96,575.75 L 513.60,576.00 L 516.67,576.68 L 518.17,577.06 L 521.00,578.02 L 522.40,578.53 L 525.04,579.79 L 526.35,580.46 L 528.85,582.03 L 530.09,582.85 L 532.50,584.75 L 536.07,587.99 L 537.34,589.25 L 539.61,591.90 L 540.70,593.24 L 542.62,596.09 L 543.53,597.54 L 545.10,600.62 L 545.84,602.20 L 547.08,605.56 L 547.66,607.28 L 548.58,610.96 L 549.01,612.84 L 549.62,616.87 L 549.89,618.94 L 550.22,623.37 L 550.39,630.50 L 550.38,631.93 L 550.35,634.39 L 550.33,635.57 L 550.27,637.61 L 550.23,638.59 L 550.12,640.30 L 550.05,641.13 L 549.88,642.63 L 549.69,644.09 L 549.05,646.81 L 547.62,651.39 L 546.90,653.50 L 545.24,657.40 L 544.37,659.29 L 542.41,662.78 L 541.39,664.48 L 539.12,667.56 L 537.94,669.05 L 535.36,671.74 L 534.03,673.03 L 531.13,675.33 L 529.64,676.43 L 526.42,678.33 L 524.77,679.24 L 521.21,680.77 L 515.50,682.64 L 514.72,682.85 L 512.69,683.18 L 511.62,683.34 L 509.12,683.57 L 506.53,683.77 L 500.67,683.86 L 497.75,683.85 L 492.24,683.51 L 490.95,683.41 L 488.67,683.11 L 487.60,682.95 L 485.89,682.55 L 483.70,681.95 L 479.59,680.32 L 477.58,679.44 L 473.82,677.28 L 471.99,676.13 L 468.61,673.46 L 466.97,672.07 L 464.01,668.92 L 462.58,667.29 L 460.05,663.70 L 458.85,661.85 L 456.78,657.85 L 455.81,655.80 L 454.23,651.41 L 452.45,644.42 L 451.91,641.58 L 451.29,635.90 L 451.06,633.06 L 451.05,627.46 L 451.12,624.68 L 451.70,619.26 L 452.06,616.58 L 453.19,611.42 L 453.83,608.89 L 455.50,604.11 L 456.40,601.77 L 458.58,597.45 L 459.74,595.36 L 462.41,591.59 L 466.95,586.67 L 468.08,585.64 L 470.42,583.80 L 471.60,582.92 L 474.03,581.37 L 475.26,580.63 L 477.83,579.36 L 479.13,578.75 L 481.86,577.75 L 483.24,577.27 L 486.16,576.52 L 487.64,576.18 L 490.78,575.67 L 492.37,575.45 L 495.76,575.18 L 501.14,575.02 M 770.22,601.04 L 771.72,601.31 L 774.59,602.06 L 775.99,602.47 L 778.64,603.48 L 779.94,604.01 L 782.38,605.28 L 783.57,605.95 L 785.78,607.47 L 786.85,608.26 L 788.84,610.04 L 789.80,610.95 L 791.55,612.97 L 792.39,614.01 L 793.90,616.26 L 795.88,619.91 L 796.46,621.14 L 797.26,623.20 L 797.62,624.22 L 798.05,626.34 L 798.24,627.46 L 798.41,630.28 L 798.45,631.06 L 798.48,632.86 L 798.50,636.00 L 798.50,637.44 L 798.44,640.22 L 798.41,641.56 L 798.29,643.93 L 798.22,645.04 L 798.06,646.74 L 797.78,648.25 L 797.70,648.45 L 797.43,648.78 L 797.27,648.94 L 796.72,649.20 L 796.41,649.32 L 795.45,649.51 L 794.91,649.59 L 793.40,649.72 L 792.56,649.78 L 790.35,649.87 L 789.14,649.90 L 786.09,649.95 L 784.45,649.97 L 780.41,649.99 L 779.33,649.99 L 776.97,650.00 L 773.09,650.00 L 771.25,650.00 L 767.82,650.02 L 766.16,650.03 L 763.09,650.07 L 761.61,650.09 L 758.94,650.15 L 757.66,650.19 L 755.42,650.27 L 754.36,650.31 L 752.57,650.41 L 751.74,650.46 L 750.44,650.58 L 749.85,650.64 L 749.07,650.77 L 748.51,650.99 L 748.38,651.20 L 748.35,651.88 L 748.38,652.27 L 748.61,653.23 L 748.90,654.25 L 750.04,656.70 L 750.68,657.93 L 752.20,660.21 L 752.58,660.73 L 753.35,661.61 L 754.46,662.57 L 754.83,662.81 L 755.79,663.25 L 756.31,663.46 L 757.50,663.84 L 758.73,664.20 L 761.59,664.68 L 763.03,664.88 L 765.88,664.97 L 769.49,664.59 L 769.85,664.50 L 770.83,663.99 L 771.36,663.69 L 772.56,662.84 L 776.30,659.56 L 780.50,655.19 L 787.93,660.34 L 788.95,661.05 L 790.84,662.43 L 791.75,663.10 L 793.28,664.31 L 793.99,664.88 L 794.99,665.77 L 795.72,666.60 L 795.80,666.87 L 795.52,667.70 L 795.32,668.16 L 794.55,669.30 L 794.11,669.90 L 792.94,671.25 L 792.32,671.93 L 790.88,673.38 L 789.38,674.83 L 786.01,677.59 L 785.16,678.24 L 783.52,679.36 L 781.22,680.68 L 779.99,681.28 L 777.91,682.14 L 776.88,682.52 L 774.76,683.02 L 773.64,683.23 L 770.91,683.49 L 770.17,683.54 L 768.46,683.63 L 765.51,683.72 L 763.91,683.76 L 760.96,683.74 L 759.53,683.71 L 757.00,683.55 L 755.80,683.46 L 753.75,683.17 L 752.79,683.01 L 751.29,682.60 L 748.81,681.80 L 744.34,679.57 L 742.18,678.35 L 738.35,675.36 L 736.53,673.78 L 733.39,670.10 L 731.92,668.19 L 729.52,663.90 L 728.41,661.69 L 726.78,656.88 L 726.07,654.41 L 725.25,649.15 L 724.94,646.47 L 724.96,640.82 L 726.00,632.02 L 726.51,629.29 L 728.20,624.26 L 729.15,621.82 L 731.63,617.41 L 732.96,615.30 L 736.14,611.59 L 737.81,609.83 L 741.60,606.87 L 743.57,605.50 L 747.88,603.37 L 750.09,602.41 L 754.83,601.16 L 757.24,600.66 L 762.32,600.36 M 897.65,577.00 L 899.33,577.05 L 902.43,577.15 L 903.72,577.20 L 906.13,577.33 L 907.28,577.40 L 909.24,577.56 L 910.14,577.65 L 911.44,577.82 L 912.40,578.06 L 912.44,578.10 L 912.51,578.50 L 912.55,578.75 L 912.63,579.53 L 912.66,579.96 L 912.73,581.09 L 912.76,581.69 L 912.82,583.10 L 912.88,584.59 L 912.97,588.25 L 913.06,594.43 L 913.07,596.60 L 913.13,600.67 L 913.17,602.62 L 913.27,605.98 L 913.30,606.76 L 913.36,608.11 L 913.39,608.75 L 913.46,609.80 L 913.49,610.29 L 913.56,610.98 L 913.67,611.58 L 913.76,611.82 L 914.05,612.02 L 914.21,612.07 L 914.66,611.90 L 914.91,611.77 L 915.54,611.21 L 916.72,609.92 L 917.80,608.63 L 920.48,606.48 L 921.90,605.48 L 925.15,603.92 L 926.84,603.22 L 930.54,602.31 L 936.45,601.74 L 938.49,601.74 L 942.50,602.15 L 943.44,602.28 L 945.09,602.62 L 947.03,603.22 L 948.21,603.72 L 950.60,605.29 L 951.79,606.15 L 954.04,608.29 L 955.13,609.42 L 957.07,611.95 L 959.41,615.99 L 959.90,617.04 L 960.57,619.25 L 960.72,619.88 L 960.95,621.46 L 961.06,622.31 L 961.24,624.50 L 961.32,625.69 L 961.44,628.71 L 961.47,629.53 L 961.52,631.37 L 961.55,632.32 L 961.59,634.44 L 961.62,635.53 L 961.66,637.97 L 961.68,639.23 L 961.71,642.00 L 961.73,643.44 L 961.77,646.58 L 961.83,651.75 L 962.15,683.00 L 940.00,683.00 L 940.00,654.96 L 939.98,650.60 L 939.97,648.52 L 939.93,644.93 L 939.91,643.22 L 939.85,640.31 L 939.81,638.94 L 939.71,636.64 L 939.66,635.57 L 939.52,633.81 L 939.45,632.99 L 939.28,631.70 L 939.19,631.10 L 938.98,630.20 L 938.60,629.20 L 938.17,628.36 L 937.18,626.90 L 936.67,626.21 L 935.53,625.06 L 934.95,624.52 L 933.67,623.67 L 933.02,623.29 L 931.62,622.75 L 930.90,622.52 L 929.38,622.30 L 928.61,622.23 L 926.97,622.32 L 926.14,622.41 L 924.41,622.82 L 921.71,623.80 L 920.73,624.24 L 919.12,625.06 L 918.36,625.48 L 917.13,626.46 L 916.57,626.99 L 915.68,628.36 L 915.27,629.11 L 914.66,631.11 L 914.38,632.21 L 913.99,635.07 L 913.90,635.85 L 913.76,637.62 L 913.69,638.54 L 913.58,640.60 L 913.53,641.67 L 913.44,644.06 L 913.40,645.30 L 913.33,648.04 L 913.30,649.46 L 913.25,652.59 L 913.17,657.75 L 912.82,683.00 L 901.17,683.00 L 898.55,682.95 L 897.29,682.91 L 895.15,682.80 L 894.16,682.74 L 892.73,682.59 L 892.13,682.51 L 891.67,682.33 L 891.63,682.30 L 891.57,681.95 L 891.53,681.73 L 891.47,681.03 L 891.45,680.63 L 891.39,679.60 L 891.36,679.05 L 891.31,677.71 L 891.29,677.01 L 891.25,675.40 L 891.23,674.55 L 891.19,672.68 L 891.15,670.75 L 891.09,666.21 L 891.06,663.84 L 891.03,658.58 L 891.01,655.88 L 890.99,650.08 L 890.98,647.13 L 890.98,640.99 L 890.98,637.89 L 891.00,631.60 L 891.02,625.30 L 891.11,613.03 L 891.14,610.05 L 891.21,604.42 L 891.24,601.67 L 891.32,596.64 L 891.37,594.21 L 891.47,589.97 L 891.52,587.96 L 891.63,584.70 L 891.66,583.95 L 891.72,582.67 L 891.75,582.07 L 891.81,581.10 L 891.84,580.66 L 891.91,580.02 L 892.01,579.47 L 892.26,578.80 L 892.74,577.94 L 893.03,577.57 L 894.08,577.18 L 894.40,577.11 L 895.27,577.03 L 895.75,577.00 L 896.98,577.00 M 703.33,576.06 L 705.52,576.07 L 709.68,576.11 L 711.72,576.13 L 715.46,576.17 L 717.27,576.20 L 720.47,576.26 L 721.99,576.29 L 724.50,576.36 L 725.67,576.40 L 727.37,576.48 L 728.88,576.62 L 732.00,577.25 L 732.00,598.00 L 702.00,598.00 L 702.00,682.00 L 679.00,682.00 L 679.00,598.05 L 649.50,597.50 L 649.22,587.38 L 649.18,586.15 L 649.13,584.12 L 649.11,583.17 L 649.10,581.64 L 649.10,580.93 L 649.15,579.82 L 649.17,579.32 L 649.28,578.55 L 649.41,577.86 L 649.93,577.19 L 651.22,576.64 L 651.40,576.59 L 652.54,576.50 L 653.22,576.45 L 655.25,576.37 L 656.37,576.34 L 659.16,576.27 L 660.63,576.24 L 664.06,576.18 L 665.83,576.16 L 669.75,576.12 L 671.76,576.10 L 676.05,576.07 L 680.41,576.04 L 689.66,576.03 L 694.30,576.03 M 494.84,596.96 L 493.83,597.16 L 491.93,597.71 L 489.38,598.77 L 488.23,599.36 L 486.15,600.74 L 485.15,601.46 L 483.37,603.09 L 482.52,603.94 L 481.02,605.84 L 480.31,606.83 L 479.09,609.02 L 478.51,610.16 L 477.55,612.67 L 477.11,613.96 L 476.41,616.80 L 476.09,618.26 L 475.63,621.45 L 475.21,626.65 L 475.13,628.37 L 475.12,631.57 L 475.14,633.14 L 475.34,636.06 L 475.46,637.48 L 475.87,640.14 L 476.10,641.43 L 476.72,643.84 L 477.05,645.02 L 477.89,647.21 L 478.34,648.27 L 479.40,650.25 L 479.97,651.22 L 481.26,653.02 L 483.47,655.53 L 484.45,656.50 L 486.62,658.16 L 487.74,658.94 L 490.15,660.20 L 491.38,660.78 L 493.96,661.64 L 495.27,662.02 L 497.96,662.46 L 499.31,662.63 L 502.04,662.66 L 503.40,662.62 L 506.10,662.22 L 507.45,661.96 L 510.06,661.13 L 511.34,660.65 L 513.79,659.37 L 514.91,658.71 L 516.93,657.20 L 517.91,656.41 L 519.64,654.61 L 520.46,653.68 L 521.91,651.59 L 522.59,650.51 L 523.76,648.12 L 524.30,646.88 L 525.18,644.18 L 525.59,642.79 L 526.20,639.78 L 526.47,638.23 L 526.80,634.89 L 527.00,629.50 L 527.00,627.58 L 526.79,624.01 L 526.64,622.26 L 526.14,619.02 L 525.86,617.44 L 525.07,614.52 L 524.63,613.11 L 523.55,610.51 L 522.97,609.25 L 521.58,606.96 L 520.85,605.85 L 519.16,603.86 L 518.28,602.91 L 516.29,601.22 L 512.95,599.00 L 512.20,598.58 L 510.48,597.89 L 509.58,597.57 L 507.62,597.09 L 505.61,596.66 L 501.25,596.41 L 499.07,596.38 M 762.13,619.00 L 759.31,619.46 L 757.96,619.76 L 755.66,620.82 L 754.57,621.43 L 752.78,623.10 L 750.67,626.28 L 750.27,627.12 L 749.65,628.50 L 749.37,629.14 L 749.06,630.17 L 748.95,630.64 L 749.04,631.36 L 749.15,631.69 L 749.74,632.16 L 750.10,632.37 L 751.27,632.65 L 751.94,632.76 L 753.80,632.90 L 754.82,632.95 L 757.44,632.99 L 762.33,633.00 L 764.17,633.00 L 767.55,632.96 L 769.18,632.93 L 771.91,632.84 L 772.54,632.81 L 773.62,632.76 L 774.13,632.73 L 774.95,632.66 L 775.32,632.63 L 775.83,632.56 L 776.05,632.52 L 776.22,632.45 L 776.38,632.28 L 776.53,631.71 L 776.58,631.40 L 776.52,630.58 L 776.41,629.71 L 775.69,627.56 L 775.26,626.46 L 774.07,624.31 L 772.04,621.75 L 771.41,621.18 L 770.28,620.37 L 769.72,620.00 L 768.55,619.53 L 767.94,619.33 L 766.49,619.11 L 763.73,619.00 Z" fill="rgba(221,221,221,1)"/>
<path d="M 173.00,843.48 L 168.50,842.85 L 159.89,841.20 L 155.66,840.31 L 147.54,838.10 L 143.54,836.92 L 135.86,834.11 L 132.06,832.64 L 124.75,829.21 L 121.14,827.42 L 114.15,823.35 L 110.68,821.24 L 103.95,816.49 L 100.60,814.03 L 94.07,808.58 L 84.43,799.58 L 81.45,796.60 L 75.93,790.49 L 73.25,787.41 L 68.31,781.08 L 65.92,777.89 L 61.56,771.33 L 59.45,768.02 L 55.65,761.21 L 53.83,757.77 L 50.58,750.69 L 49.03,747.11 L 46.33,739.75 L 45.05,736.03 L 42.89,728.36 L 40.24,716.50 L 39.95,714.96 L 39.49,711.36 L 39.28,709.49 L 38.96,705.36 L 38.82,703.25 L 38.65,698.79 L 38.58,696.54 L 38.56,691.95 L 38.57,689.66 L 38.69,685.14 L 38.77,682.90 L 39.03,678.64 L 39.18,676.56 L 39.59,672.75 L 40.37,667.77 L 40.99,664.68 L 42.46,658.75 L 43.24,655.81 L 45.07,650.14 L 46.04,647.34 L 48.27,641.89 L 49.44,639.20 L 52.13,633.94 L 53.53,631.33 L 56.70,626.21 L 58.35,623.67 L 62.06,618.65 L 63.98,616.15 L 68.26,611.19 L 70.48,608.72 L 75.38,603.77 L 77.91,601.30 L 83.48,596.33 L 86.35,593.84 L 92.62,588.80 L 95.84,586.27 L 102.86,581.11 L 106.47,578.52 L 114.29,573.22 L 118.30,570.54 L 126.95,565.04 L 131.38,562.26 L 140.91,556.52 L 145.79,553.62 L 156.24,547.60 L 173.00,538.21 L 175.87,536.63 L 181.24,533.67 L 183.87,532.22 L 188.78,529.50 L 191.19,528.17 L 195.68,525.67 L 197.88,524.45 L 201.99,522.17 L 204.00,521.05 L 207.76,518.94 L 209.60,517.91 L 213.05,515.97 L 214.74,515.02 L 217.91,513.22 L 219.47,512.34 L 222.40,510.66 L 225.29,509.01 L 230.49,505.98 L 233.02,504.50 L 237.74,501.69 L 251.47,493.26 L 254.07,491.63 L 258.88,488.58 L 261.22,487.07 L 265.61,484.21 L 269.92,481.38 L 277.78,475.93 L 281.66,473.19 L 289.35,467.45 L 291.30,465.96 L 295.34,462.83 L 301.70,457.79 L 303.37,456.44 L 306.48,454.07 L 307.97,452.95 L 310.48,451.17 L 311.06,450.77 L 312.07,450.12 L 312.54,449.82 L 313.29,449.38 L 313.64,449.19 L 314.12,448.99 L 314.49,448.98 L 314.57,449.11 L 314.64,450.15 L 314.65,450.78 L 314.60,452.63 L 314.56,453.64 L 314.40,456.06 L 314.04,460.08 L 313.88,461.68 L 313.61,465.62 L 313.48,467.69 L 313.30,472.39 L 313.21,474.81 L 313.11,480.06 L 313.07,482.73 L 313.04,488.30 L 313.04,493.92 L 313.28,505.21 L 313.36,507.97 L 313.59,513.22 L 314.02,520.50 L 314.19,522.94 L 314.62,528.10 L 314.84,530.72 L 315.37,536.29 L 315.64,539.13 L 316.27,545.17 L 316.60,548.25 L 317.35,554.80 L 317.74,558.15 L 318.60,565.28 L 319.05,568.92 L 320.04,576.66 L 320.55,580.62 L 321.68,589.05 L 323.52,602.50 L 324.08,606.58 L 325.12,614.13 L 325.63,617.80 L 326.54,624.57 L 326.99,627.87 L 327.80,633.95 L 328.19,636.91 L 328.88,642.36 L 329.22,645.02 L 329.82,649.92 L 330.11,652.31 L 330.61,656.73 L 330.85,658.89 L 331.27,662.91 L 331.47,664.88 L 331.80,668.56 L 332.12,672.18 L 332.53,678.71 L 332.70,681.91 L 332.87,688.06 L 332.93,691.14 L 332.90,697.47 L 332.70,707.82 L 332.62,710.79 L 332.42,716.13 L 332.30,718.72 L 332.00,723.41 L 331.84,725.69 L 331.43,729.89 L 331.21,731.95 L 330.65,735.81 L 330.06,739.62 L 328.36,746.88 L 327.89,748.72 L 326.77,752.50 L 324.84,758.50 L 324.13,760.60 L 322.50,764.74 L 321.65,766.80 L 319.73,770.86 L 318.74,772.88 L 316.56,776.86 L 315.44,778.83 L 313.00,782.71 L 311.75,784.63 L 309.07,788.40 L 307.71,790.27 L 304.79,793.91 L 301.83,797.52 L 295.25,804.32 L 291.86,807.64 L 284.51,813.80 L 280.74,816.79 L 272.71,822.22 L 268.61,824.83 L 259.99,829.44 L 257.80,830.53 L 253.33,832.55 L 246.50,835.31 L 243.65,836.38 L 237.78,838.24 L 234.82,839.13 L 228.76,840.64 L 225.72,841.36 L 219.53,842.51 L 216.43,843.04 L 210.17,843.83 L 207.04,844.18 L 200.76,844.60 L 197.62,844.76 L 191.37,844.80 L 188.26,844.77 L 182.09,844.43 L 179.03,844.21 Z" fill="rgba(237,89,37,1)"/>
</g>
</svg>